<?xml version="1.0" encoding="UTF-8" standalone="no"?>
<!-- Created with Inkscape (http://www.inkscape.org/) -->

<svg
   xmlns:dc="http://purl.org/dc/elements/1.1/"
   xmlns:cc="http://creativecommons.org/ns#"
   xmlns:rdf="http://www.w3.org/1999/02/22-rdf-syntax-ns#"
   xmlns:svg="http://www.w3.org/2000/svg"
   xmlns="http://www.w3.org/2000/svg"
   xmlns:sodipodi="http://sodipodi.sourceforge.net/DTD/sodipodi-0.dtd"
   xmlns:inkscape="http://www.inkscape.org/namespaces/inkscape"
   version="1.1"
   id="svg852"
   xml:space="preserve"
   width="309.24371"
   height="118.39247"
   viewBox="0 0 309.24372 118.39247"
   sodipodi:docname="holoviz-logo-unstacked.svg"
   inkscape:version="0.92.4 (5da689c313, 2019-01-14)"><metadata
     id="metadata858"><rdf:RDF><cc:Work
         rdf:about=""><dc:format>image/svg+xml</dc:format><dc:type
           rdf:resource="http://purl.org/dc/dcmitype/StillImage" /><dc:title></dc:title></cc:Work></rdf:RDF></metadata><defs
     id="defs856"><clipPath
       clipPathUnits="userSpaceOnUse"
       id="clipPath870"><path
         d="M 0,0 H 21266 V 3025 H 0 Z"
         id="path868"
         inkscape:connector-curvature="0" /></clipPath><clipPath
       clipPathUnits="userSpaceOnUse"
       id="clipPath876"><path
         d="m 2916.59,2510.25 -971.27,384.08 v 130.87 l 1103.63,-436.41 -132.36,-78.54"
         id="path874"
         inkscape:connector-curvature="0" /></clipPath><clipPath
       clipPathUnits="userSpaceOnUse"
       id="clipPath888"><path
         d="m 1945.32,1934.03 v 852.48 l 862.21,-340.95 -862.21,-511.53"
         id="path886"
         inkscape:connector-curvature="0" /></clipPath><clipPath
       clipPathUnits="userSpaceOnUse"
       id="clipPath900"><path
         d="m 1945.19,1706.25 v -0.01 l -820.49,486.78 820.49,-1146.9 z"
         id="path898"
         inkscape:connector-curvature="0" /></clipPath><linearGradient
       x1="0"
       y1="0"
       x2="1"
       y2="0"
       gradientUnits="userSpaceOnUse"
       gradientTransform="matrix(-1103.62,0,0,1103.62,1945.19,1619.57)"
       spreadMethod="pad"
       id="linearGradient910"><stop
         style="stop-opacity:1;stop-color:#f8a72c"
         offset="0"
         id="stop902" /><stop
         style="stop-opacity:1;stop-color:#f3c126"
         offset="0.360317"
         id="stop904" /><stop
         style="stop-opacity:1;stop-color:#eed81f"
         offset="0.63774"
         id="stop906" /><stop
         style="stop-opacity:1;stop-color:#eed81f"
         offset="1"
         id="stop908" /></linearGradient><clipPath
       clipPathUnits="userSpaceOnUse"
       id="clipPath920"><path
         d="M 1945.19,1934.04 841.574,2588.79 979.875,2395.46 1945.19,1822.76 Z"
         id="path918"
         inkscape:connector-curvature="0" /></clipPath><linearGradient
       x1="0"
       y1="0"
       x2="1"
       y2="0"
       gradientUnits="userSpaceOnUse"
       gradientTransform="matrix(-1103.62,0,0,1103.62,1945.19,2205.77)"
       spreadMethod="pad"
       id="linearGradient928"><stop
         style="stop-opacity:1;stop-color:#f8a72c"
         offset="0"
         id="stop922" /><stop
         style="stop-opacity:1;stop-color:#eed81f"
         offset="0.63774"
         id="stop924" /><stop
         style="stop-opacity:1;stop-color:#eed81f"
         offset="1"
         id="stop926" /></linearGradient><clipPath
       clipPathUnits="userSpaceOnUse"
       id="clipPath938"><path
         d="m 1945.2,1822.76 965.53,572.69 138.35,193.34 -1103.89,-654.75 v -111.28 z"
         id="path936"
         inkscape:connector-curvature="0" /></clipPath><linearGradient
       x1="0"
       y1="0"
       x2="1"
       y2="0"
       gradientUnits="userSpaceOnUse"
       gradientTransform="matrix(-1103.89,0,0,1103.89,3049.08,2205.77)"
       spreadMethod="pad"
       id="linearGradient948"><stop
         style="stop-opacity:1;stop-color:#ef2e33"
         offset="0"
         id="stop940" /><stop
         style="stop-opacity:1;stop-color:#ef2e33"
         offset="0.480429"
         id="stop942" /><stop
         style="stop-opacity:1;stop-color:#f3611b"
         offset="0.857692"
         id="stop944" /><stop
         style="stop-opacity:1;stop-color:#f3611b"
         offset="1"
         id="stop946" /></linearGradient><clipPath
       clipPathUnits="userSpaceOnUse"
       id="clipPath958"><path
         d="m 1945.19,1046.12 820.7,1146.91 -820.7,-486.78 z"
         id="path956"
         inkscape:connector-curvature="0" /></clipPath><linearGradient
       x1="0"
       y1="0"
       x2="1"
       y2="0"
       gradientUnits="userSpaceOnUse"
       gradientTransform="matrix(-1103.89,0,0,1103.89,3049.08,1619.57)"
       spreadMethod="pad"
       id="linearGradient968"><stop
         style="stop-opacity:1;stop-color:#ef2e33"
         offset="0"
         id="stop960" /><stop
         style="stop-opacity:1;stop-color:#ef2e33"
         offset="0.480429"
         id="stop962" /><stop
         style="stop-opacity:1;stop-color:#f3611b"
         offset="0.857692"
         id="stop964" /><stop
         style="stop-opacity:1;stop-color:#f3611b"
         offset="1"
         id="stop966" /></linearGradient></defs><sodipodi:namedview
     bordercolor="#666666"
     borderopacity="1"
     objecttolerance="10"
     gridtolerance="10"
     guidetolerance="10"
     inkscape:pageopacity="0"
     inkscape:pageshadow="2"
     inkscape:window-width="1227"
     inkscape:window-height="723"
     id="namedview854"
     showgrid="false"
     inkscape:zoom="1.8852812"
     inkscape:cx="163.65251"
     inkscape:cy="47.11955"
     inkscape:window-x="0"
     inkscape:window-y="0"
     inkscape:window-maximized="0"
     inkscape:current-layer="g860"
     inkscape:snap-global="false"
     fit-margin-top="0"
     fit-margin-left="0"
     fit-margin-right="0"
     fit-margin-bottom="0" /><g
     id="g860"
     inkscape:groupmode="layer"
     inkscape:label="ink_ext_XXXXXX"
     transform="matrix(1.3333333,0,0,-1.3333333,-794.10838,450.34764)"><rect
       inkscape:export-filename="/Users/jstevens/holoviz-unstacked.png"
       inkscape:export-xdpi="405.4278"
       inkscape:export-ydpi="405.4278"
       style="opacity:0;fill:#ffffff;fill-opacity:0;stroke:none;stroke-width:1.38910747;stroke-linecap:round"
       id="rect5474"
       width="231.93279"
       height="88.794357"
       x="595.5813"
       y="-337.76074"
       transform="scale(1,-1)" /><rect
       style="opacity:0;fill:#ffffff;fill-opacity:0;stroke:none;stroke-width:1.51439977;stroke-linecap:round"
       id="rect5453"
       width="87.765686"
       height="87.765686"
       x="605.3125"
       y="-337.2464"
       transform="scale(1,-1)"
       inkscape:export-filename="/Users/jstevens/logo_only.png"
       inkscape:export-xdpi="410.18311"
       inkscape:export-ydpi="410.18311" /><rect
       style="opacity:0.53480003;fill:none;fill-opacity:1;stroke:none;stroke-width:1.41732287;stroke-linecap:round"
       id="rect1016"
       width="216"
       height="238.99998"
       x="475.14798"
       y="-37.258137"
       transform="scale(1,-1)" /><g
       id="g5514"><g
         transform="matrix(0.48226847,0,0,0.48226847,652.88335,262.21987)"
         id="g5413"><path
           inkscape:connector-curvature="0"
           id="path1008-3"
           style="fill:#444b59;fill-opacity:1;fill-rule:nonzero;stroke:none;stroke-width:0.09999999"
           d="m 137.90013,24.372853 c 0,4.1121 -0.815,7.3453 -2.44599,9.7011 -1.632,2.3532 -3.95901,3.5309 -6.984,3.5309 -3.02401,0 -5.36801,-1.1777 -7.02701,-3.5309 -1.661,-2.3558 -2.49,-5.589 -2.49,-9.7011 0,-4.1129 0.829,-7.3758 2.49,-9.7899 1.659,-2.414 4.003,-3.6211 7.02701,-3.6211 3.02499,0 5.352,1.2071 6.984,3.6211 1.63099,2.4141 2.44599,5.677 2.44599,9.7899 z m 13.521,0 c 0,-3.6969 -0.533,-7.0778 -1.601,-10.1489 -1.06699,-3.0699 -2.61,-5.6921597 -4.62499,-7.8671597 -2.01801,-2.17695 -4.43501,-3.85976 -7.25001,-5.05195 -2.817,-1.19179998 -5.976,-1.78788998 -9.47499,-1.78788998 -3.43901,0 -6.56801,0.59609 -9.38401,1.78788998 -2.818,1.19219 -5.235,2.875 -7.25,5.05195 -2.017,2.175 -3.589,4.7972597 -4.715,7.8671597 -1.127,3.0711 -1.69,6.452 -1.69,10.1489 0,3.6953 0.578,7.0632 1.735,10.1031 1.156,3.0398 2.757,5.6332 4.803,7.7789 2.046,2.1453 4.477,3.8133 7.294,5.0062 2.817,1.1918 5.886,1.7879 9.20701,1.7879 3.381,0 6.47899,-0.5961 9.29599,-1.7879 2.817,-1.1929 5.234,-2.8609 7.251,-5.0062 2.015,-2.1457 3.587,-4.7391 4.71401,-7.7789 1.12599,-3.0399 1.68999,-6.4078 1.68999,-10.1031" /><path
           inkscape:connector-curvature="0"
           id="path1010-4"
           style="fill:#444b59;fill-opacity:1;fill-rule:nonzero;stroke:none;stroke-width:0.09999999"
           d="m 175.38613,-0.12484668 c -3.856,0.0598 -6.983,0.47695 -9.384,1.25195998 -2.403,0.77304 -4.301,1.86172 -5.694,3.26289 -1.394,1.4 -2.344,3.09883 -2.846,5.09609 -0.505,1.9968597 -0.756,4.2468597 -0.756,6.7499597 v 42.71799 l 13.254,11.19611 v -51.2312 c 0,-1.1942 0.088,-2.2661 0.266,-3.2192 0.179,-0.9539 0.519,-1.759 1.024,-2.4137 0.503,-0.6562 1.23,-1.1941 2.179,-1.6101 0.948,-0.4172 2.224,-0.6852 3.825,-0.8039 l -1.868,-10.99689968" /><path
           inkscape:connector-curvature="0"
           id="path1012-1"
           style="fill:#444b59;fill-opacity:1;fill-rule:nonzero;stroke:none;stroke-width:0.09999999"
           d="m 210.11413,24.372853 c 0,4.1121 -0.816,7.3453 -2.446,9.7011 -1.632,2.3532 -3.958,3.5309 -6.983,3.5309 -3.024,0 -5.368,-1.1777 -7.028,-3.5309 -1.66,-2.3558 -2.49,-5.589 -2.49,-9.7011 0,-4.1129 0.83,-7.3758 2.49,-9.7899 1.66,-2.414 4.004,-3.6211 7.028,-3.6211 3.025,0 5.351,1.2071 6.983,3.6211 1.63,2.4141 2.446,5.677 2.446,9.7899 z m 13.521,0 c 0,-3.6969 -0.533,-7.0778 -1.6,-10.1489 -1.069,-3.0699 -2.611,-5.6921597 -4.626,-7.8671597 -2.017,-2.17695 -4.435,-3.85976 -7.25,-5.05195 -2.818,-1.19179998 -5.976,-1.78788998 -9.474,-1.78788998 -3.44,0 -6.569,0.59609 -9.386,1.78788998 -2.816,1.19219 -5.234,2.875 -7.249,5.05195 -2.017,2.175 -3.588,4.7972597 -4.714,7.8671597 -1.128,3.0711 -1.691,6.452 -1.691,10.1489 0,3.6953 0.578,7.0632 1.734,10.1031 1.157,3.0398 2.758,5.6332 4.804,7.7789 2.046,2.1453 4.478,3.8133 7.295,5.0062 2.816,1.1918 5.885,1.7879 9.207,1.7879 3.38,0 6.479,-0.5961 9.296,-1.7879 2.815,-1.1929 5.233,-2.8609 7.25,-5.0062 2.016,-2.1457 3.587,-4.7391 4.715,-7.7789 1.125,-3.0399 1.689,-6.4078 1.689,-10.1031" /><path
           inkscape:connector-curvature="0"
           id="path1014-6"
           style="fill:#94aac4;fill-opacity:1;fill-rule:nonzero;stroke:none;stroke-width:0.09999999"
           d="m 294.03413,0.76890332 h -13.254 V 47.797853 h 13.254 z m 1.246,60.61914968 c 0,-2.4449 -0.787,-4.36721 -2.358,-5.7672 -1.572,-1.40081 -3.424,-2.1008 -5.56,-2.1008 -2.135,0 -3.988,0.69999 -5.56,2.1008 -1.571,1.39999 -2.357,3.3223 -2.357,5.7672 0,2.44369 0.786,4.366 2.357,5.76679 1.572,1.3992 3.425,2.1012 5.56,2.1012 2.136,0 3.988,-0.702 5.56,-2.1012 1.571,-1.40079 2.358,-3.3231 2.358,-5.76679" /><path
           inkscape:connector-curvature="0"
           id="path1020-4"
           style="fill:#94aac4;fill-opacity:1;fill-rule:nonzero;stroke:none;stroke-width:0.09999999"
           d="m 275.94613,64.845053 h -13.823 l -15.182,-36.798 -15.189,36.798 h -14.316 l 12.31,-26.734 -0.076,0.1098 17.021,-37.45194968 23.067,50.63324968 6.188,13.4429" /><path
           inkscape:connector-curvature="0"
           id="path1022-3"
           style="fill:#444b59;fill-opacity:1;fill-rule:nonzero;stroke:none;stroke-width:0.09999999"
           d="m 66.855134,38.856753 v 23.693 h -0.013 v 2.2031 l -13.864,-6.59291 V 10.488053 0.58883332 h 13.877 v 16.96791968 9.3204 11.9796" /><path
           inkscape:connector-curvature="0"
           id="path1024-1"
           style="fill:#444b59;fill-opacity:1;fill-rule:nonzero;stroke:none;stroke-width:0.09999999"
           d="m 85.229134,58.159943 -0.013,-19.30319 h -14.173 v -11.9796 h 14.173 V 0.58883332 h 13.877001 v 12.59921968 49.3617 2.2031 l -13.864001,-6.59291" /><path
           style="opacity:1;fill:#94aac4;fill-opacity:1;stroke-width:0.56458342"
           d="m 300.98674,4.4308775 c 0,3.1439733 0.2708,4.4743125 1.2359,6.0692725 1.88295,3.112153 8.50817,12.018186 14.38267,19.334103 2.89906,3.610353 5.27103,6.722642 5.27103,6.916136 0,0.193641 -4.44609,0.351792 -9.88022,0.351792 h -9.8802 v 5.363566 5.36352 h 18.34896 18.34894 v -4.569468 -4.569478 l -4.41686,-4.887283 c -7.90102,-8.742575 -17.60187,-20.96059 -17.60187,-22.169205 0,-0.276872 5.07075,-0.502457 11.29167,-0.502457 h 11.29165 V 5.7678111 0.40427961 h -19.19583 -19.19584 z"
           id="path1069"
           inkscape:connector-curvature="0" /></g><g
         transform="matrix(1.0900289,0.14931539,-0.14931539,1.0900289,-14.473863,-124.42737)"
         id="g5449"><g
           id="g5432"><path
             d="m 609.57618,290.91846 10.92959,-25.22707 2.14375,2.14376 -9.61847,22.20153 -3.45487,0.88178"
             style="fill:#c01c2d;fill-opacity:1;fill-rule:nonzero;stroke:none;stroke-width:0.02316593"
             id="path992"
             inkscape:connector-curvature="0" /><path
             id="path994"
             d="m 615.00733,291.82127 -5.43325,-0.90062 12.5303,-3.20036 -6.2273,1.58983 8.53859,-19.70881 13.96301,13.96302 0.003,-10e-4 7.35257,-28.80358 0.90165,5.43256 -6.43161,25.19398 z m -5.43121,-0.90266 10.92962,-25.22723 2.14364,2.14364 -9.61839,22.20163 z"
             style="fill:#94aac4;fill-opacity:1;fill-rule:nonzero;stroke:none;stroke-width:0.02316593"
             inkscape:connector-curvature="0" /><path
             id="path1000"
             d="m 652.92673,298.10831 -32.23097,-5.34367 21.41742,-5.46989 v 0 l 5.46651,-21.41401 z"
             style="fill:#444b59;fill-opacity:1;fill-rule:nonzero;stroke:none;stroke-width:0.02316593"
             inkscape:connector-curvature="0" /></g><g
           id="g5437"
           transform="translate(-7.5,-7.5)"><path
             inkscape:connector-curvature="0"
             id="path5211"
             style="fill:#c01c2d;fill-opacity:1;fill-rule:nonzero;stroke:none;stroke-width:0.02316593"
             d="m 696.27741,305.29785 -10.92959,25.22707 -2.14376,-2.14375 9.61848,-22.20154 3.45487,-0.88178" /><path
             id="path5213"
             d="m 660.11881,341.45654 -0.9013,-5.43257 6.43126,-25.19397 25.19737,-6.43499 5.43325,0.90062 -12.73732,3.25296 6.43432,-1.64243 -8.53859,19.7088 -13.96268,-13.96268 -0.003,7e-4 z m 25.22892,-10.93165 -2.14364,-2.14364 9.61839,-22.20163 3.45487,-0.88162 z"
             style="fill:#94aac4;fill-opacity:1;fill-rule:nonzero;stroke:none;stroke-width:0.02316593"
             inkscape:connector-curvature="0" /><path
             id="path5219"
             d="m 658.27378,330.33554 -5.34705,-32.22723 32.23098,5.34332 -21.41742,5.4699 v 0 z"
             style="fill:#444b59;fill-opacity:1;fill-rule:nonzero;stroke:none;stroke-width:0.02316593"
             inkscape:connector-curvature="0" /></g></g></g></g></svg>
